<?xml version="1.0" encoding="UTF-8" standalone="no"?>
<svg
   xmlns:dc="http://purl.org/dc/elements/1.1/"
   xmlns:cc="http://creativecommons.org/ns#"
   xmlns:rdf="http://www.w3.org/1999/02/22-rdf-syntax-ns#"
   xmlns:svg="http://www.w3.org/2000/svg"
   xmlns="http://www.w3.org/2000/svg"
   xmlns:sodipodi="http://sodipodi.sourceforge.net/DTD/sodipodi-0.dtd"
   xmlns:inkscape="http://www.inkscape.org/namespaces/inkscape"
   width="512"
   height="512"
   viewBox="0 0 135.46666 135.46666"
   version="1.1"
   id="svg8"
   inkscape:version="1.0.1 (3bc2e813f5, 2020-09-07)"
   sodipodi:docname="pstkly.svg">
  <defs
     id="defs2">
    <rect
       x="478.37888"
       y="160.02904"
       width="135.17773"
       height="29.085888"
       id="rect1008" />
  </defs>
  <sodipodi:namedview
     id="base"
     pagecolor="#ffffff"
     bordercolor="#666666"
     borderopacity="1.0"
     inkscape:pageopacity="0.0"
     inkscape:pageshadow="2"
     inkscape:zoom="0.7"
     inkscape:cx="484.82688"
     inkscape:cy="547.33896"
     inkscape:document-units="mm"
     inkscape:current-layer="layer1"
     inkscape:document-rotation="0"
     showgrid="false"
     inkscape:window-width="1920"
     inkscape:window-height="1027"
     inkscape:window-x="0"
     inkscape:window-y="30"
     inkscape:window-maximized="1"
     units="px" />
  <metadata
     id="metadata5">
    <rdf:RDF>
      <cc:Work
         rdf:about="">
        <dc:format>image/svg+xml</dc:format>
        <dc:type
           rdf:resource="http://purl.org/dc/dcmitype/StillImage" />
        <dc:title></dc:title>
      </cc:Work>
    </rdf:RDF>
  </metadata>
  <g
     inkscape:label="Layer 1"
     inkscape:groupmode="layer"
     id="layer1">
    <text
       xml:space="preserve"
       style="font-style:normal;font-weight:normal;font-size:10.5833px;line-height:1.25;font-family:sans-serif;fill:#000000;fill-opacity:1;stroke:none;stroke-width:0.264583"
       x="320.44592"
       y="262.966"
       id="text907"><tspan
         sodipodi:role="line"
         id="tspan905"
         x="320.44592"
         y="262.966"
         style="stroke-width:0.264583" /></text>
    <g
       id="g1102"
       transform="matrix(0.68819674,0,0,0.68819674,-313.80733,3.337519)">
      <g
         id="g1030"
         transform="translate(3.1146768,3.1939067)"
         inkscape:export-xdpi="32"
         inkscape:export-ydpi="32">
        <path
           id="path64"
           style="fill:none;fill-rule:evenodd;stroke:#ff6600;stroke-width:14.759;stroke-miterlimit:4;stroke-dasharray:none;stroke-opacity:1"
           d="M 612.37173,80.578331 A 68.135651,68.135651 0 0 1 544.23608,148.71398 68.135651,68.135651 0 0 1 476.10043,80.578331 68.135651,68.135651 0 0 1 544.23608,12.44268 68.135651,68.135651 0 0 1 612.37173,80.578331 Z" />
        <path
           id="path889"
           style="fill:none;stroke:#ffffff;stroke-width:12.3824;stroke-miterlimit:4;stroke-dasharray:none;stroke-opacity:1"
           d="m 598.86248,80.578331 a 54.6264,54.6264 0 0 1 -54.6264,54.626399 54.6264,54.6264 0 0 1 -54.6264,-54.626399 54.6264,54.6264 0 0 1 54.6264,-54.6264 54.6264,54.6264 0 0 1 54.6264,54.6264 z" />
        <path
           id="path891"
           style="fill:none;stroke:#44aa00;stroke-width:12.4;stroke-miterlimit:4;stroke-dasharray:none;stroke-opacity:1"
           d="M 586.8097,80.578331 A 42.573616,42.573616 0 0 1 544.23608,123.15195 42.573616,42.573616 0 0 1 501.66247,80.578331 42.573616,42.573616 0 0 1 544.23608,38.004715 42.573616,42.573616 0 0 1 586.8097,80.578331 Z" />
        <path
           id="path909"
           style="fill:#000000;fill-opacity:1;stroke:none;stroke-width:0.938001;stroke-miterlimit:4;stroke-dasharray:none;stroke-opacity:1"
           d="m 552.91931,62.54628 a 8.6832266,8.6832266 0 0 1 -8.68323,8.683226 8.6832266,8.6832266 0 0 1 -8.68322,-8.683226 8.6832266,8.6832266 0 0 1 8.68322,-8.683227 8.6832266,8.6832266 0 0 1 8.68323,8.683227 z" />
        <g
           id="g917"
           transform="translate(2.8497301,-16.05435)">
          <g
             id="g942"
             transform="translate(0.23719829,-0.33168945)">
            <g
               id="g936">
              <g
                 id="g931">
                <path
                   id="rect911"
                   style="fill:#000000;fill-opacity:1;stroke:none;stroke-width:0.938001;stroke-miterlimit:4;stroke-dasharray:none;stroke-opacity:1"
                   d="m 526.53922,66.407379 h 10.78731 c 0.51666,0 0.9326,0.415936 0.9326,0.932593 0,0.516656 -0.41594,0.932593 -0.9326,0.932593 h -10.78731 c -0.51666,0 -0.93259,-0.415937 -0.93259,-0.932593 0,-0.516657 0.41593,-0.932593 0.93259,-0.932593 z" />
                <path
                   id="rect913"
                   style="fill:#000000;fill-opacity:1;stroke:none;stroke-width:0.938001;stroke-miterlimit:4;stroke-dasharray:none;stroke-opacity:1"
                   d="m 526.40683,66.407379 c 0.44331,0 0.8002,0.35689 0.8002,0.800202 v 23.509826 c 0,0.443312 -0.35689,0.800202 -0.8002,0.800202 -0.44331,0 -0.8002,-0.35689 -0.8002,-0.800202 V 67.207581 c 0,-0.443312 0.35689,-0.800202 0.8002,-0.800202 z" />
              </g>
            </g>
          </g>
          <g
             id="g978"
             transform="matrix(-0.99999865,0,0,1,1082.5348,-0.39204014)">
            <g
               id="g976">
              <g
                 id="g974">
                <path
                   id="rect970"
                   style="fill:#000000;fill-opacity:1;stroke:none;stroke-width:0.938001;stroke-miterlimit:4;stroke-dasharray:none;stroke-opacity:1"
                   d="m 526.53922,66.407379 h 10.78731 c 0.51666,0 0.9326,0.415936 0.9326,0.932593 0,0.516656 -0.41594,0.932593 -0.9326,0.932593 h -10.78731 c -0.51666,0 -0.93259,-0.415937 -0.93259,-0.932593 0,-0.516657 0.41593,-0.932593 0.93259,-0.932593 z" />
                <path
                   id="rect972"
                   style="fill:#000000;fill-opacity:1;stroke:none;stroke-width:0.938001;stroke-miterlimit:4;stroke-dasharray:none;stroke-opacity:1"
                   d="m 526.40683,66.407379 c 0.44331,0 0.8002,0.35689 0.8002,0.800202 v 23.509826 c 0,0.443312 -0.35689,0.800202 -0.8002,0.800202 -0.44331,0 -0.8002,-0.35689 -0.8002,-0.800202 V 67.207581 c 0,-0.443312 0.35689,-0.800202 0.8002,-0.800202 z" />
              </g>
            </g>
          </g>
        </g>
        <path
           id="rect980"
           style="fill:#000000;fill-opacity:1;stroke:none;stroke-width:1.10503;stroke-miterlimit:4;stroke-dasharray:none;stroke-opacity:1"
           d="m 541.4627,71.665314 h 5.54679 c 2.39788,0 4.3283,1.930422 4.3283,4.328301 v 19.408604 c 0,2.397879 -1.93042,4.328301 -4.3283,4.328301 h -5.54679 c -2.39788,0 -4.3283,-1.930422 -4.3283,-4.328301 V 75.993615 c 0,-2.397879 1.93042,-4.328301 4.3283,-4.328301 z" />
        <path
           id="rect998"
           style="fill:#ff0000;fill-opacity:1;stroke:none;stroke-width:1.16808;stroke-miterlimit:4;stroke-dasharray:none;stroke-opacity:1"
           transform="matrix(0.81496439,0.57951103,0,1,0,0)"
           d="m 654.39996,-302.42514 h 13.49752 v 18.17804 h -13.49752 z" />
        <path
           id="rect1000"
           style="fill:#ff0000;fill-opacity:1;stroke:none;stroke-width:1.16808;stroke-miterlimit:4;stroke-dasharray:none;stroke-opacity:1"
           transform="matrix(-0.81496439,0.57951103,0,1,0,0)"
           d="m -681.39496,471.68274 h 13.49752 v 18.17804 h -13.49752 z" />
      </g>
      <g
         aria-label="PUSTAKALAYAM"
         transform="matrix(2.4597605,0,0,2.4597605,-717.69154,-235.41771)"
         id="text1006"
         style="font-style:normal;font-variant:normal;font-weight:normal;font-stretch:normal;font-size:10.5833px;line-height:1.25;font-family:Bahnschrift;-inkscape-font-specification:'Bahnschrift, Normal';font-variant-ligatures:normal;font-variant-caps:normal;font-variant-numeric:normal;font-variant-east-asian:normal;white-space:pre;shape-inside:url(#rect1008);fill:#000000;fill-opacity:1;stroke:none">
        <path
           d="m 479.85168,165.83771 h 2.40295 q 0.34106,0 0.59944,-0.1602 0.25838,-0.16019 0.39791,-0.45475 0.14469,-0.29455 0.14469,-0.67696 v 0 q 0,-0.38757 -0.14469,-0.68212 -0.13953,-0.29456 -0.39791,-0.45476 -0.25838,-0.16536 -0.59944,-0.16536 h -2.40295 v -1.00252 h 2.36677 q 0.67179,0 1.18339,0.28939 0.51159,0.28422 0.79065,0.80615 0.28422,0.52193 0.28422,1.20922 v 0 q 0,0.6873 -0.28422,1.20923 -0.27906,0.51676 -0.79065,0.80098 -0.5116,0.28422 -1.18339,0.28422 h -2.36677 z m -0.5426,-3.59667 h 1.05419 v 7.51373 h -1.05419 z"
           style="font-style:normal;font-variant:normal;font-weight:normal;font-stretch:normal;font-size:10.5833px;font-family:Bahnschrift;-inkscape-font-specification:'Bahnschrift, Normal';font-variant-ligatures:normal;font-variant-caps:normal;font-variant-numeric:normal;font-variant-east-asian:normal"
           id="path1045" />
        <path
           d="m 488.32659,169.83228 q -0.83199,0 -1.42627,-0.32556 -0.58911,-0.33072 -0.89916,-0.95601 -0.31006,-0.63045 -0.31006,-1.51411 v -4.79556 h 1.05419 v 4.83173 q 0,0.82165 0.41341,1.27124 0.41341,0.44958 1.16789,0.44958 0.75964,0 1.17305,-0.44958 0.41858,-0.44959 0.41858,-1.27124 v -4.83173 h 1.05419 v 4.79556 q 0,0.88366 -0.31005,1.51411 -0.31006,0.62529 -0.90434,0.95601 -0.59428,0.32556 -1.43143,0.32556 z"
           style="font-style:normal;font-variant:normal;font-weight:normal;font-stretch:normal;font-size:10.5833px;font-family:Bahnschrift;-inkscape-font-specification:'Bahnschrift, Normal';font-variant-ligatures:normal;font-variant-caps:normal;font-variant-numeric:normal;font-variant-east-asian:normal"
           id="path1047" />
        <path
           d="m 494.98766,169.83228 q -0.5426,0 -1.02836,-0.10335 -0.48576,-0.10335 -0.9095,-0.31006 -0.41858,-0.2067 -0.78548,-0.51676 v 0 l 0.65629,-0.80615 v 0 q 0.42891,0.37207 0.94567,0.55811 0.51677,0.18603 1.12138,0.18603 0.81648,0 1.26607,-0.29972 0.44958,-0.30489 0.44958,-0.85783 v -0.005 q 0,-0.39274 -0.2067,-0.62011 -0.20154,-0.23254 -0.5271,-0.34106 -0.3204,-0.11369 -0.83199,-0.20671 -0.0155,-0.005 -0.0362,-0.005 -0.0155,0 -0.031,-0.005 l -0.0775,-0.0155 q -0.75448,-0.12919 -1.2299,-0.28938 -0.47025,-0.16537 -0.80615,-0.59428 -0.33589,-0.43408 -0.33589,-1.2299 v -0.005 q 0,-0.69763 0.31005,-1.18856 0.31523,-0.49609 0.91467,-0.75447 0.59945,-0.25838 1.44177,-0.25838 0.40308,0 0.79065,0.0879 0.39274,0.0878 0.76997,0.26355 0.38241,0.17053 0.74931,0.43408 v 0 l -0.59944,0.83715 v 0 q -0.42892,-0.31522 -0.85783,-0.47025 -0.42375,-0.1602 -0.85266,-0.1602 -0.76998,0 -1.19889,0.31006 -0.42374,0.30489 -0.42374,0.86816 v 0.005 q 0,0.38757 0.21704,0.60978 0.2222,0.22221 0.54776,0.33073 0.33073,0.10335 0.91467,0.21704 0.0207,0.005 0.0362,0.0103 0.0207,0 0.0413,0.005 0.0258,0.005 0.0568,0.0103 0.031,0.005 0.0568,0.0103 0.68212,0.13953 1.13687,0.33073 0.45992,0.1912 0.76481,0.62011 0.31006,0.42375 0.31006,1.16272 v 0.0103 q 0,0.6873 -0.32556,1.17822 -0.32556,0.48576 -0.94568,0.74414 -0.61494,0.25321 -1.48827,0.25321 z"
           style="font-style:normal;font-variant:normal;font-weight:normal;font-stretch:normal;font-size:10.5833px;font-family:Bahnschrift;-inkscape-font-specification:'Bahnschrift, Normal';font-variant-ligatures:normal;font-variant-caps:normal;font-variant-numeric:normal;font-variant-east-asian:normal"
           id="path1049" />
        <path
           d="m 500.33615,162.85599 h 1.0542 v 6.89878 h -1.0542 z m -2.12389,-0.61495 h 5.30198 v 1.00252 h -5.30198 z"
           style="font-style:normal;font-variant:normal;font-weight:normal;font-stretch:normal;font-size:10.5833px;font-family:Bahnschrift;-inkscape-font-specification:'Bahnschrift, Normal';font-variant-ligatures:normal;font-variant-caps:normal;font-variant-numeric:normal;font-variant-east-asian:normal"
           id="path1051" />
        <path
           d="m 506.28409,162.24104 h 0.89917 l 2.76985,7.51373 h -1.13688 l -2.08256,-6.06163 -2.08255,6.06163 h -1.13688 z m -1.49344,4.86274 h 3.95323 v 1.00252 h -3.95323 z"
           style="font-style:normal;font-variant:normal;font-weight:normal;font-stretch:normal;font-size:10.5833px;font-family:Bahnschrift;-inkscape-font-specification:'Bahnschrift, Normal';font-variant-ligatures:normal;font-variant-caps:normal;font-variant-numeric:normal;font-variant-east-asian:normal"
           id="path1053" />
        <path
           d="m 511.9168,166.45782 3.31762,-4.21678 h 1.29707 l -4.76971,5.79808 z m -0.82682,-4.21678 h 1.0542 v 7.51373 h -1.0542 z m 2.07739,3.50365 0.83199,-0.76997 2.84736,4.78005 h -1.29191 z"
           style="font-style:normal;font-variant:normal;font-weight:normal;font-stretch:normal;font-size:10.5833px;font-family:Bahnschrift;-inkscape-font-specification:'Bahnschrift, Normal';font-variant-ligatures:normal;font-variant-caps:normal;font-variant-numeric:normal;font-variant-east-asian:normal"
           id="path1055" />
        <path
           d="m 519.92663,162.24104 h 0.89916 l 2.76985,7.51373 h -1.13688 l -2.08255,-6.06163 -2.08255,6.06163 h -1.13688 z m -1.49345,4.86274 h 3.95324 v 1.00252 h -3.95324 z"
           style="font-style:normal;font-variant:normal;font-weight:normal;font-stretch:normal;font-size:10.5833px;font-family:Bahnschrift;-inkscape-font-specification:'Bahnschrift, Normal';font-variant-ligatures:normal;font-variant-caps:normal;font-variant-numeric:normal;font-variant-east-asian:normal"
           id="path1057" />
        <path
           d="m 524.73252,162.24104 h 1.05419 v 7.51373 h -1.05419 z m 0.5271,6.51121 h 4.29946 v 1.00252 h -4.29946 z"
           style="font-style:normal;font-variant:normal;font-weight:normal;font-stretch:normal;font-size:10.5833px;font-family:Bahnschrift;-inkscape-font-specification:'Bahnschrift, Normal';font-variant-ligatures:normal;font-variant-caps:normal;font-variant-numeric:normal;font-variant-east-asian:normal"
           id="path1059" />
        <path
           d="m 532.84569,162.24104 h 0.89917 l 2.76985,7.51373 h -1.13688 l -2.08255,-6.06163 -2.08256,6.06163 h -1.13687 z m -1.49344,4.86274 h 3.95323 v 1.00252 h -3.95323 z"
           style="font-style:normal;font-variant:normal;font-weight:normal;font-stretch:normal;font-size:10.5833px;font-family:Bahnschrift;-inkscape-font-specification:'Bahnschrift, Normal';font-variant-ligatures:normal;font-variant-caps:normal;font-variant-numeric:normal;font-variant-east-asian:normal"
           id="path1061" />
        <path
           d="m 539.3414,166.7007 v 3.05407 h -1.0542 v -3.05407 l -2.28926,-4.45966 h 1.17306 l 1.6433,3.38996 1.64331,-3.38996 h 1.17305 z"
           style="font-style:normal;font-variant:normal;font-weight:normal;font-stretch:normal;font-size:10.5833px;font-family:Bahnschrift;-inkscape-font-specification:'Bahnschrift, Normal';font-variant-ligatures:normal;font-variant-caps:normal;font-variant-numeric:normal;font-variant-east-asian:normal"
           id="path1063" />
        <path
           d="m 543.9871,162.24104 h 0.89916 l 2.76985,7.51373 h -1.13688 l -2.08255,-6.06163 -2.08255,6.06163 h -1.13688 z m -1.49345,4.86274 h 3.95324 v 1.00252 h -3.95324 z"
           style="font-style:normal;font-variant:normal;font-weight:normal;font-stretch:normal;font-size:10.5833px;font-family:Bahnschrift;-inkscape-font-specification:'Bahnschrift, Normal';font-variant-ligatures:normal;font-variant-caps:normal;font-variant-numeric:normal;font-variant-east-asian:normal"
           id="path1065" />
        <path
           d="m 554.19316,162.24104 h 0.98702 v 7.51373 h -1.02836 v -5.62755 l 0.0517,0.33073 -1.85001,4.25296 h -0.7338 l -1.85001,-4.1496 0.0517,-0.43409 v 5.62755 h -1.02836 v -7.51373 h 0.98702 l 2.20657,4.96092 z"
           style="font-style:normal;font-variant:normal;font-weight:normal;font-stretch:normal;font-size:10.5833px;font-family:Bahnschrift;-inkscape-font-specification:'Bahnschrift, Normal';font-variant-ligatures:normal;font-variant-caps:normal;font-variant-numeric:normal;font-variant-east-asian:normal"
           id="path1067" />
      </g>
    </g>
  </g>
</svg>
